# xmcd
#
# Track frame offsets:
#	150
#	11628
#	25457
#	35770
#	55083
#	68492
#	80452
#	92482
#	109834
#	120911
#	133151
#	145862
#	161411
#	174712
#	186264
#
# Disc length: 2684
#
# Revision: 1
# Processed by: cddbd v1.5.2PL0 Copyright (c) Steve Scherf et al.
# Submitted via: kJams Pro (development) 1.0patch46.55
#
DISCID=c50a7a0f
DTITLE=Various Artist - CB 60072
DYEAR=1980
DGENRE=Country
TTITLE0=Eddy Arnold - You Don't Know Me
TTITLE1=Roy Acuff - The Great Speckled Bird
TTITLE2=Tenessee Ernie Ford - Kissin' Bug Boogie
TTITLE3=The Weavers - Goodnight Irene
TTITLE4=Ray Price - Invitation To The Blues
TTITLE5=Roger Miller - Engine Engine #9
TTITLE6=Charley Pride - Does My Ring Hurt Your Finger
TTITLE7=Johnny Cash - Sunday Mornin' Comin' Down
TTITLE8=Charley Pride - Baby Baby
TTITLE9=Merle Haggard - Today I Started Loving You Again
TTITLE10=Marty Robbins - Singin' The Blues
TTITLE11=David Houston - Almost Persuaded
TTITLE12=Hank Williams - You Win Again
TTITLE13=Jim Reeves - Adios Amigo
TTITLE14=Lefty Frizzel - Always Late With Your Kisses
EXTD=
EXTT0=
EXTT1=
EXTT2=
EXTT3=
EXTT4=
EXTT5=
EXTT6=
EXTT7=
EXTT8=
EXTT9=
EXTT10=
EXTT11=
EXTT12=
EXTT13=
EXTT14=
PLAYORDER=
